%FSLAX24Y24*%
%MOIN*%
%SFA1B1*%

%IPPOS*%
%ADD16C,0.003900*%
%ADD17C,0.007900*%
%ADD18C,0.005900*%
%ADD19C,0.004000*%
%LNpcb1-1*%
%LPD*%
G54D16*
X11522Y12713D02*
D01*
X11521Y12714*
X11521Y12715*
X11521Y12717*
X11521Y12718*
X11520Y12719*
X11520Y12721*
X11519Y12722*
X11518Y12723*
X11518Y12724*
X11517Y12725*
X11516Y12726*
X11515Y12727*
X11514Y12728*
X11513Y12729*
X11512Y12730*
X11510Y12730*
X11509Y12731*
X11508Y12732*
X11506Y12732*
X11505Y12732*
X11504Y12732*
X11502Y12732*
X11501*
X11499Y12732*
X11498Y12732*
X11497Y12732*
X11495Y12732*
X11494Y12731*
X11493Y12730*
X11492Y12730*
X11490Y12729*
X11489Y12728*
X11488Y12727*
X11487Y12726*
X11486Y12725*
X11485Y12724*
X11485Y12723*
X11484Y12722*
X11483Y12721*
X11483Y12719*
X11482Y12718*
X11482Y12717*
X11482Y12715*
X11482Y12714*
X11482Y12713*
X11482Y12711*
X11482Y12710*
X11482Y12708*
X11482Y12707*
X11483Y12706*
X11483Y12704*
X11484Y12703*
X11485Y12702*
X11485Y12701*
X11486Y12700*
X11487Y12699*
X11488Y12698*
X11489Y12697*
X11490Y12696*
X11492Y12695*
X11493Y12695*
X11494Y12694*
X11495Y12693*
X11497Y12693*
X11498Y12693*
X11499Y12693*
X11501Y12693*
X11502*
X11504Y12693*
X11505Y12693*
X11506Y12693*
X11508Y12693*
X11509Y12694*
X11510Y12695*
X11512Y12695*
X11513Y12696*
X11514Y12697*
X11515Y12698*
X11516Y12699*
X11517Y12700*
X11518Y12701*
X11518Y12702*
X11519Y12703*
X11520Y12704*
X11520Y12706*
X11521Y12707*
X11521Y12708*
X11521Y12710*
X11521Y12711*
X11522Y12713*
G54D17*
X11659Y11787D02*
X11817D01*
X12683D02*
X12841D01*
X12683Y12713D02*
X12841D01*
X11659D02*
X11817D01*
G54D18*
X12800Y14750D02*
X13200D01*
X11300D02*
X11600D01*
G54D19*
X11300Y10600D02*
Y10800D01*
X11200Y10700*
X11333*
X13283Y10800D02*
X13150D01*
Y10700*
X13217Y10733*
X13250*
X13283Y10700*
Y10633*
X13250Y10600*
X13183*
X13150Y10633*
X11200Y11817D02*
X11233Y11850D01*
X11300*
X11333Y11817*
Y11783*
X11300Y11750*
X11267*
X11300*
X11333Y11717*
Y11683*
X11300Y11650*
X11233*
X11200Y11683*
X13283Y11850D02*
X13217Y11817D01*
X13150Y11750*
Y11683*
X13183Y11650*
X13250*
X13283Y11683*
Y11717*
X13250Y11750*
X13150*
X11333Y12650D02*
X11200D01*
X11333Y12783*
Y12817*
X11300Y12850*
X11233*
X11200Y12817*
X13150Y12850D02*
X13283D01*
Y12817*
X13150Y12683*
Y12650*
Y13817D02*
X13183Y13850D01*
X13250*
X13283Y13817*
Y13783*
X13250Y13750*
X13283Y13717*
Y13683*
X13250Y13650*
X13183*
X13150Y13683*
Y13717*
X13183Y13750*
X13150Y13783*
Y13817*
X13183Y13750D02*
X13250D01*
X11700Y11250D02*
X11833D01*
X11767*
Y11050*
X11900Y11250D02*
Y11050D01*
X12000*
X12033Y11083*
Y11217*
X12000Y11250*
X11900*
X12233D02*
X12100D01*
Y11150*
X12167*
X12100*
Y11050*
X12300D02*
Y11250D01*
X12433Y11050*
Y11250*
X12500Y11150D02*
X12633D01*
X12700Y11217D02*
X12733Y11250D01*
X12800*
X12833Y11217*
Y11183*
X12800Y11150*
X12833Y11117*
Y11083*
X12800Y11050*
X12733*
X12700Y11083*
Y11117*
X12733Y11150*
X12700Y11183*
Y11217*
X12733Y11150D02*
X12800D01*
X11950Y14650D02*
Y14850D01*
X12050*
X12083Y14817*
Y14750*
X12050Y14717*
X11950*
X12150Y14650D02*
Y14783D01*
X12217Y14850*
X12283Y14783*
Y14650*
Y14750*
X12150*
X12350Y14850D02*
Y14650D01*
X12450*
X12483Y14683*
Y14817*
X12450Y14850*
X12350*
X11200Y13650D02*
X11267D01*
X11233*
Y13850*
X11200Y13817*
M02*