%FSLAX24Y24*%
%MOIN*%
%SFA1B1*%

%IPPOS*%
%ADD13C,0.070000*%
%ADD14R,0.070000X0.070000*%
%ADD15C,0.019700*%
%LNpcb1-1*%
%LPD*%
G36*
X14250Y14250D02*
X13250D01*
Y10250*
X11250*
Y14250*
X10250*
Y15250*
X14250*
Y14250*
G37*
%LNpcb1-2*%
%LPC*%
G36*
X11964Y12442D02*
X11936Y12437D01*
X11871Y12393*
X11827Y12327*
X11821Y12300*
X11964*
Y12442*
G37*
G36*
X12064D02*
Y12300D01*
X12206*
X12201Y12327*
X12157Y12393*
X12091Y12437*
X12064Y12442*
G37*
G36*
X12436D02*
X12409Y12437D01*
X12343Y12393*
X12299Y12327*
X12294Y12300*
X12436*
Y12442*
G37*
G36*
X12679Y12200D02*
X12536D01*
Y12058*
X12564Y12063*
X12629Y12107*
X12673Y12173*
X12679Y12200*
G37*
G36*
X11964D02*
X11821D01*
X11827Y12173*
X11871Y12107*
X11936Y12063*
X11964Y12058*
Y12200*
G37*
G36*
X12206D02*
X12064D01*
Y12058*
X12091Y12063*
X12157Y12107*
X12201Y12173*
X12206Y12200*
G37*
G36*
X12436D02*
X12294D01*
X12299Y12173*
X12343Y12107*
X12409Y12063*
X12436Y12058*
Y12200*
G37*
G36*
X11200Y15200D02*
X10800D01*
Y14800*
X11200*
Y15200*
G37*
G36*
X14200Y14700D02*
X13800D01*
Y14300*
X14200*
Y14700*
G37*
G36*
Y15200D02*
X13800D01*
Y14800*
X14200*
Y15200*
G37*
G36*
X13700D02*
X13300D01*
Y14800*
X13700*
Y15200*
G37*
G36*
X10700D02*
X10300D01*
Y14300*
X10700*
Y14750*
Y15200*
G37*
G36*
X12536Y12442D02*
Y12300D01*
X12679*
X12673Y12327*
X12629Y12393*
X12564Y12437*
X12536Y12442*
G37*
G36*
X13700Y14700D02*
X13300D01*
Y14300*
X13700*
Y14700*
G37*
G36*
X11200D02*
X10800D01*
Y14300*
X11200*
Y14700*
G37*
%LNpcb1-3*%
%LPD*%
G54D13*
X13750Y10750D03*
Y11750D03*
Y13750D03*
Y12750D03*
X10750Y10750D03*
Y11750D03*
Y13750D03*
Y12750D03*
G54D14*
X13750Y14750D03*
X10750D03*
G54D15*
X12014Y12250D03*
X12486D03*
M02*